<svg version="1.1" id="Layer_1" xmlns="http://www.w3.org/2000/svg" xmlns:xlink="http://www.w3.org/1999/xlink" x="0px" y="0px"
	 width="100%" viewBox="0 0 400 400" enable-background="new 0 0 400 400" xml:space="preserve">
<path fill="#FFFFFF" opacity="1.000000" stroke="none" 
	d="
M240.000000,401.000000 
	C160.000000,401.000000 80.500000,401.000000 1.000000,401.000000 
	C1.000000,267.666656 1.000000,134.333328 1.000000,1.000000 
	C134.333328,1.000000 267.666656,1.000000 401.000000,1.000000 
	C401.000000,134.333328 401.000000,267.666656 401.000000,401.000000 
	C347.500000,401.000000 294.000000,401.000000 240.000000,401.000000 
M81.509743,309.880188 
	C81.664505,310.586609 81.819267,311.292999 81.981438,312.690552 
	C83.163048,314.294250 84.344658,315.897919 85.958641,318.055939 
	C90.408859,318.977509 94.857086,320.690796 99.309593,320.701965 
	C167.116440,320.872437 234.923859,320.821686 302.731140,320.813538 
	C304.895721,320.813263 307.066681,320.804016 309.223602,320.646759 
	C314.771179,320.242310 318.021912,316.890533 320.352234,311.264008 
	C320.524445,308.945679 320.846252,306.627380 320.847107,304.308990 
	C320.873199,235.502884 320.876770,166.696777 320.831085,97.890686 
	C320.829346,95.262596 320.304291,92.634850 320.030487,89.396660 
	C319.783020,89.094948 319.535522,88.793243 319.267517,88.247330 
	C319.267517,88.247330 319.064697,88.109764 319.013885,87.408157 
	C317.702087,86.173546 316.390259,84.938934 314.867188,83.324188 
	C314.653351,83.105164 314.393463,82.989807 313.796906,82.427940 
	C313.217133,82.263924 312.637329,82.099915 311.287354,81.638046 
	C309.635620,81.473740 307.983978,81.166283 306.332184,81.165703 
	C236.053558,81.141090 165.774902,81.125206 95.496407,81.219170 
	C92.992233,81.222519 90.489540,82.345802 87.997322,82.967690 
	C87.997322,82.967690 87.977379,82.978317 87.437965,82.966438 
	C87.300545,83.082466 87.163124,83.198494 86.444466,83.615768 
	C81.098953,86.991806 81.132858,92.383224 81.132927,97.768517 
	C81.133789,166.014099 81.128708,234.259689 81.151611,302.505280 
	C81.152161,304.139343 81.458153,305.773254 81.576889,307.769135 
	C81.576889,307.769135 81.830894,308.030701 81.614601,308.554657 
	C81.660561,308.737915 81.706520,308.921204 81.688889,309.282837 
	C81.688889,309.282837 81.825363,309.414124 81.509743,309.880188 
z"/>
<path fill="#0000FD" opacity="1.000000" stroke="none" 
	d="
M319.064697,88.109764 
	C319.064697,88.109764 319.267517,88.247330 319.092896,88.762573 
	C318.976440,93.191605 319.084625,97.105385 319.085236,101.019180 
	C319.095673,167.341995 319.114990,233.664825 319.034119,299.987549 
	C319.029572,303.719543 317.587677,307.495514 317.868774,311.170410 
	C318.211273,315.647583 315.891174,314.394684 314.437897,315.103546 
	C313.297180,316.097717 312.156494,317.091888 310.954315,317.726196 
	C309.088043,315.285858 307.706512,315.055786 306.771057,318.494934 
	C305.619354,318.867371 304.800873,319.074432 303.982422,319.074310 
	C235.004135,319.062134 166.025864,319.033966 96.982361,318.666351 
	C96.027443,317.498901 95.137749,316.672028 94.368195,315.956787 
	C95.347198,313.484070 96.242157,311.223633 96.853722,309.678986 
	C92.141724,310.886536 88.048622,311.935516 83.926384,312.600281 
	C83.881874,311.189301 83.866508,310.162476 84.124268,308.930847 
	C83.960075,307.808441 83.522758,306.890900 83.068192,305.506714 
	C83.071373,235.371872 83.091805,165.703659 83.392067,95.992188 
	C83.797371,95.302513 83.922852,94.656075 84.040955,93.587631 
	C83.972786,92.314598 83.912003,91.463585 83.826729,90.292526 
	C84.148193,89.236771 84.494148,88.501068 85.036469,88.063393 
	C86.632935,88.528290 88.033051,88.695160 89.433159,88.862030 
	C88.638237,87.544052 87.843323,86.226074 87.029198,84.714218 
	C87.009987,84.520355 87.109734,84.143700 87.316071,83.998184 
	C87.674057,83.561218 87.825714,83.269768 87.977379,82.978317 
	C87.977379,82.978317 87.997322,82.967690 88.370148,83.016769 
	C89.504219,82.977196 90.265480,82.888535 91.260925,83.104996 
	C94.917778,83.243050 98.340370,82.931892 101.763115,82.930283 
	C164.044754,82.901001 226.326416,82.879501 288.607971,82.951080 
	C295.392853,82.958878 302.175476,83.599327 308.963318,83.816086 
	C310.002502,83.849266 311.064331,83.173714 312.439026,82.907585 
	C313.204102,82.985512 313.645844,82.981812 314.087585,82.978119 
	C314.393463,82.989807 314.653351,83.105164 314.953735,83.887146 
	C314.621826,85.734238 314.203369,87.018379 313.847717,88.109764 
	C315.586670,88.109764 317.325684,88.109764 319.064697,88.109764 
z"/>
<path fill="#3539DB" opacity="1.000000" stroke="none" 
	d="
M97.047577,319.006897 
	C166.025864,319.033966 235.004135,319.062134 303.982422,319.074310 
	C304.800873,319.074432 305.619354,318.867371 307.158417,318.455688 
	C308.924591,318.131653 309.970184,318.108856 311.015778,318.086060 
	C312.156494,317.091888 313.297180,316.097717 314.437897,315.103546 
	C315.891174,314.394684 318.211273,315.647583 317.868774,311.170410 
	C317.587677,307.495514 319.029572,303.719543 319.034119,299.987549 
	C319.114990,233.664825 319.095673,167.341995 319.085236,101.019180 
	C319.084625,97.105385 318.976440,93.191605 319.103180,88.884674 
	C319.535522,88.793243 319.783020,89.094948 320.000305,90.167496 
	C319.989777,164.630936 320.009399,238.323517 320.029053,312.016113 
	C318.021912,316.890533 314.771179,320.242310 309.223602,320.646759 
	C307.066681,320.804016 304.895721,320.813263 302.731140,320.813538 
	C234.923859,320.821686 167.116440,320.872437 99.309593,320.701965 
	C94.857086,320.690796 90.408859,318.977509 85.882210,317.633057 
	C85.805779,317.210205 86.083504,316.917633 86.459778,317.019897 
	C90.239899,317.750397 93.643738,318.378662 97.047577,319.006897 
z"/>
<path fill="#454AE2" opacity="1.000000" stroke="none" 
	d="
M84.840103,87.765366 
	C84.494148,88.501068 84.148193,89.236771 83.453857,90.475639 
	C82.776077,93.538391 82.160988,96.097748 82.158974,98.657593 
	C82.105820,166.099274 82.120590,233.541031 82.094681,300.982758 
	C82.093864,303.124329 81.786263,305.265747 81.621674,307.407257 
	C81.458153,305.773254 81.152161,304.139343 81.151611,302.505280 
	C81.128708,234.259689 81.133789,166.014099 81.132927,97.768517 
	C81.132858,92.383224 81.098953,86.991806 86.751022,83.672920 
	C87.057571,83.730072 87.109734,84.143700 87.109734,84.143700 
	C87.109734,84.143700 87.009987,84.520355 86.934799,85.013069 
	C86.186440,86.258980 85.513275,87.012177 84.840103,87.765366 
z"/>
<path fill="#454AE2" opacity="1.000000" stroke="none" 
	d="
M91.026733,82.799873 
	C90.265480,82.888535 89.504219,82.977196 88.364563,83.006485 
	C90.489540,82.345802 92.992233,81.222519 95.496407,81.219170 
	C165.774902,81.125206 236.053558,81.141090 306.332184,81.165703 
	C307.983978,81.166283 309.635620,81.473740 311.620789,81.847000 
	C311.954254,82.055954 311.851715,82.176582 311.397156,82.129822 
	C238.898926,82.056458 166.855240,82.025780 94.811546,82.036446 
	C93.549896,82.036636 92.288338,82.534325 91.026733,82.799873 
z"/>
<path fill="#454AE2" opacity="1.000000" stroke="none" 
	d="
M320.190643,311.640076 
	C320.009399,238.323517 319.989777,164.630936 319.996582,90.472641 
	C320.304291,92.634850 320.829346,95.262596 320.831085,97.890686 
	C320.876770,166.696777 320.873199,235.502884 320.847107,304.308990 
	C320.846252,306.627380 320.524445,308.945679 320.190643,311.640076 
z"/>
<path fill="#0205C4" opacity="1.000000" stroke="none" 
	d="
M81.599281,307.588196 
	C81.786263,305.265747 82.093864,303.124329 82.094681,300.982758 
	C82.120590,233.541031 82.105820,166.099274 82.158974,98.657593 
	C82.160988,96.097748 82.776077,93.538391 83.478348,90.795685 
	C83.912003,91.463585 83.972786,92.314598 83.784927,93.748817 
	C83.394936,94.899826 83.253593,95.467636 83.112244,96.035439 
	C83.091805,165.703659 83.071373,235.371872 83.014297,305.825653 
	C82.595413,307.084381 82.213158,307.557556 81.830902,308.030701 
	C81.830894,308.030701 81.576889,307.769135 81.599281,307.588196 
z"/>
<path fill="#3539DB" opacity="1.000000" stroke="none" 
	d="
M83.851135,309.135651 
	C83.866508,310.162476 83.881874,311.189301 84.041855,312.907471 
	C84.818810,314.705078 85.451157,315.811371 86.083504,316.917633 
	C86.083504,316.917633 85.805779,317.210205 85.666023,317.355896 
	C84.344658,315.897919 83.163048,314.294250 81.992767,311.913696 
	C81.944519,310.562622 81.884941,309.988373 81.825363,309.414124 
	C81.825363,309.414124 81.688889,309.282837 82.071419,309.196960 
	C82.919678,309.119293 83.385406,309.127472 83.851135,309.135651 
z"/>
<path fill="#3539DB" opacity="1.000000" stroke="none" 
	d="
M319.039307,87.758957 
	C317.325684,88.109764 315.586670,88.109764 313.847717,88.109764 
	C314.203369,87.018379 314.621826,85.734238 315.059387,84.077209 
	C316.390259,84.938934 317.702087,86.173546 319.039307,87.758957 
z"/>
<path fill="#0303EE" opacity="1.000000" stroke="none" 
	d="
M84.124268,308.930847 
	C83.385406,309.127472 82.919678,309.119293 82.103210,309.107788 
	C81.706520,308.921204 81.660561,308.737915 81.722748,308.292664 
	C82.213158,307.557556 82.595413,307.084381 83.031555,306.292267 
	C83.522758,306.890900 83.960075,307.808441 84.124268,308.930847 
z"/>
<path fill="#454AE2" opacity="1.000000" stroke="none" 
	d="
M313.942261,82.703033 
	C313.645844,82.981812 313.204102,82.985512 312.385956,82.740334 
	C312.009552,82.491455 311.851715,82.176582 311.851715,82.176582 
	C311.851715,82.176582 311.954254,82.055954 312.005920,81.995926 
	C312.637329,82.099915 313.217133,82.263924 313.942261,82.703033 
z"/>
<path fill="#454AE2" opacity="1.000000" stroke="none" 
	d="
M81.667557,309.647156 
	C81.884941,309.988373 81.944519,310.562622 81.989059,311.568146 
	C81.819267,311.292999 81.664505,310.586609 81.667557,309.647156 
z"/>
<path fill="#3539DB" opacity="1.000000" stroke="none" 
	d="
M87.316071,83.998184 
	C87.109734,84.143700 87.057571,83.730072 87.041634,83.522293 
	C87.163124,83.198494 87.300545,83.082466 87.707672,82.972382 
	C87.825714,83.269768 87.674057,83.561218 87.316071,83.998184 
z"/>
<path fill="#3539DB" opacity="1.000000" stroke="none" 
	d="
M311.397156,82.129822 
	C311.851715,82.176582 312.009552,82.491455 312.062622,82.658707 
	C311.064331,83.173714 310.002502,83.849266 308.963318,83.816086 
	C302.175476,83.599327 295.392853,82.958878 288.607971,82.951080 
	C226.326416,82.879501 164.044754,82.901001 101.763115,82.930283 
	C98.340370,82.931892 94.917778,83.243050 91.260925,83.104996 
	C92.288338,82.534325 93.549896,82.036636 94.811546,82.036446 
	C166.855240,82.025780 238.898926,82.056458 311.397156,82.129822 
z"/>
<path fill="#0303EE" opacity="1.000000" stroke="none" 
	d="
M86.459778,317.019897 
	C85.451157,315.811371 84.818810,314.705078 84.070984,313.291626 
	C88.048622,311.935516 92.141724,310.886536 96.853722,309.678986 
	C96.242157,311.223633 95.347198,313.484070 94.368195,315.956787 
	C95.137749,316.672028 96.027443,317.498901 96.982361,318.666351 
	C93.643738,318.378662 90.239899,317.750397 86.459778,317.019897 
z"/>
<path fill="#0303EE" opacity="1.000000" stroke="none" 
	d="
M85.036469,88.063400 
	C85.513275,87.012177 86.186440,86.258980 86.954010,85.206940 
	C87.843323,86.226074 88.638237,87.544052 89.433159,88.862030 
	C88.033051,88.695160 86.632935,88.528290 85.036469,88.063400 
z"/>
<path fill="#0303EE" opacity="1.000000" stroke="none" 
	d="
M310.954315,317.726196 
	C309.970184,318.108856 308.924591,318.131653 307.491638,318.193665 
	C307.706512,315.055786 309.088043,315.285858 310.954315,317.726196 
z"/>
<path fill="#0303EE" opacity="1.000000" stroke="none" 
	d="
M83.392067,95.992188 
	C83.253593,95.467636 83.394936,94.899826 83.792313,94.170837 
	C83.922852,94.656075 83.797371,95.302513 83.392067,95.992188 
z"/>
</svg>