<svg xmlns="http://www.w3.org/2000/svg" viewBox="0 0 100 100" fill="none" stroke="#6B7280" stroke-width="0.5" stroke-linecap="round" stroke-linejoin="round">
  <path d="M 67.3,50.0 L 67.1,51.3 L 66.8,52.7 L 66.4,54.0 L 66.0,55.3 L 65.6,56.6 L 65.1,57.9 L 64.5,59.3 L 63.9,60.5 L 63.2,61.8 L 62.5,63.1 L 61.8,64.3 L 60.9,65.6 L 60.1,66.8 L 59.1,68.0 L 58.2,69.1 L 57.1,70.2 L 56.0,71.3 L 54.9,72.4 L 53.7,73.4 L 52.5,74.3 L 51.3,75.2 L 50.0,76.1 L 48.6,76.9 L 47.3,77.6 L 45.9,78.3 L 44.4,78.9 L 43.0,79.4 L 41.6,79.8 L 40.1,80.2 L 38.7,80.4 L 37.2,80.6 L 35.8,80.7 L 34.4,80.6 L 33.0,80.5 L 31.7,80.3 L 30.4,80.0 L 29.2,79.5 L 28.1,78.9 L 27.0,78.3 L 26.0,77.5 L 25.1,76.6 L 24.3,75.6 L 23.6,74.5 L 23.0,73.3 L 22.6,72.0 L 22.3,70.6 L 22.1,69.1 L 22.1,67.5 L 22.2,65.9 L 22.4,64.1 L 22.9,62.3 L 23.4,60.5 L 24.2,58.5 L 25.1,56.6 L 26.2,54.5 L 27.4,52.5 L 28.8,50.4 L 30.4,48.4 L 32.1,46.3 L 34.0,44.3 L 36.0,42.2 L 38.1,40.2 L 40.4,38.3 L 42.8,36.4 L 45.4,34.5 L 48.0,32.8 L 50.7,31.1 L 53.5,29.5 L 56.4,28.0 L 59.3,26.6 L 62.2,25.4 L 65.2,24.3 L 68.2,23.3 L 71.2,22.4 L 74.1,21.7 L 77.1,21.2 L 79.9,20.8 L 82.7,20.5 L 85.5,20.4 L 88.1,20.5 L 90.6,20.8 L 93.0,21.2 L 95.2,21.7 L 97.3,22.5 L 99.2,23.3 L 100.9,24.4 L 102.4,25.5 L 103.8,26.8 L 104.9,28.3 L 105.8,29.8 L 106.5,31.5 L 106.9,33.3 L 107.1,35.2 L 107.1,37.1 L 106.9,39.2 L 106.3,41.2 L 105.6,43.4 L 104.6,45.6 L 103.4,47.8 L 102.0,50.0" />
  <path d="M 71.7,50.0 L 71.2,51.4 L 70.7,52.9 L 70.2,54.3 L 69.5,55.7 L 68.8,57.2 L 68.0,58.6 L 67.2,59.9 L 66.3,61.3 L 65.3,62.7 L 64.3,64.0 L 63.2,65.3 L 62.1,66.5 L 60.9,67.7 L 59.6,68.9 L 58.3,70.1 L 57.0,71.1 L 55.6,72.2 L 54.2,73.2 L 52.7,74.1 L 51.2,75.0 L 49.7,75.8 L 48.1,76.5 L 46.5,77.2 L 45.0,77.8 L 43.4,78.3 L 41.8,78.7 L 40.2,79.1 L 38.6,79.3 L 37.0,79.5 L 35.5,79.6 L 33.9,79.5 L 32.5,79.4 L 31.0,79.2 L 29.7,78.9 L 28.3,78.4 L 27.1,77.9 L 25.9,77.3 L 24.8,76.6 L 23.8,75.7 L 22.9,74.8 L 22.1,73.8 L 21.4,72.6 L 20.9,71.4 L 20.4,70.1 L 20.1,68.7 L 19.9,67.2 L 19.9,65.7 L 20.0,64.0 L 20.3,62.4 L 20.7,60.6 L 21.2,58.8 L 21.9,57.0 L 22.8,55.1 L 23.8,53.2 L 25.0,51.2 L 26.3,49.3 L 27.8,47.3 L 29.4,45.4 L 31.2,43.4 L 33.0,41.5 L 35.1,39.7 L 37.2,37.8 L 39.5,36.0 L 41.8,34.3 L 44.3,32.7 L 46.8,31.1 L 49.4,29.6 L 52.1,28.2 L 54.9,26.9 L 57.6,25.8 L 60.4,24.7 L 63.3,23.7 L 66.1,22.9 L 68.9,22.3 L 71.6,21.7 L 74.4,21.3 L 77.0,21.1 L 79.7,20.9 L 82.2,21.0 L 84.6,21.2 L 86.9,21.5 L 89.1,22.0 L 91.2,22.6 L 93.1,23.4 L 94.8,24.3 L 96.4,25.3 L 97.8,26.5 L 99.1,27.8 L 100.1,29.2 L 100.9,30.7 L 101.6,32.3 L 102.0,34.1 L 102.2,35.9 L 102.2,37.7 L 102.0,39.7 L 101.5,41.7 L 100.9,43.7 L 100.0,45.8 L 98.9,47.9 L 97.6,50.0" />
  <path d="M 76.0,50.0 L 75.4,51.6 L 74.7,53.1 L 73.9,54.6 L 73.0,56.2 L 72.1,57.7 L 71.0,59.2 L 69.9,60.6 L 68.7,62.1 L 67.5,63.5 L 66.1,64.9 L 64.7,66.2 L 63.3,67.5 L 61.7,68.7 L 60.2,69.9 L 58.5,71.0 L 56.9,72.1 L 55.2,73.1 L 53.4,74.0 L 51.7,74.8 L 49.9,75.6 L 48.1,76.3 L 46.3,76.9 L 44.5,77.5 L 42.7,77.9 L 40.9,78.3 L 39.1,78.6 L 37.3,78.7 L 35.6,78.8 L 33.9,78.8 L 32.3,78.7 L 30.7,78.5 L 29.1,78.1 L 27.7,77.7 L 26.3,77.2 L 25.0,76.6 L 23.7,75.9 L 22.6,75.1 L 21.6,74.2 L 20.6,73.2 L 19.8,72.1 L 19.1,70.9 L 18.6,69.6 L 18.1,68.3 L 17.8,66.9 L 17.6,65.4 L 17.6,63.8 L 17.7,62.2 L 18.0,60.5 L 18.4,58.8 L 18.9,57.1 L 19.6,55.3 L 20.4,53.5 L 21.4,51.6 L 22.5,49.8 L 23.8,47.9 L 25.2,46.0 L 26.7,44.2 L 28.4,42.4 L 30.2,40.6 L 32.1,38.8 L 34.2,37.1 L 36.3,35.4 L 38.5,33.8 L 40.8,32.3 L 43.2,30.8 L 45.7,29.4 L 48.2,28.1 L 50.8,26.9 L 53.4,25.9 L 56.0,24.9 L 58.7,24.0 L 61.3,23.2 L 63.9,22.6 L 66.6,22.1 L 69.1,21.7 L 71.7,21.5 L 74.2,21.4 L 76.6,21.4 L 78.9,21.5 L 81.1,21.8 L 83.2,22.2 L 85.3,22.8 L 87.1,23.5 L 88.9,24.3 L 90.5,25.2 L 91.9,26.3 L 93.2,27.5 L 94.4,28.7 L 95.3,30.1 L 96.1,31.6 L 96.7,33.2 L 97.0,34.8 L 97.3,36.6 L 97.3,38.4 L 97.1,40.2 L 96.7,42.1 L 96.1,44.0 L 95.4,46.0 L 94.4,48.0 L 93.3,50.0" />
  <path d="M 80.3,50.0 L 79.5,51.7 L 78.6,53.3 L 77.6,55.0 L 76.5,56.6 L 75.3,58.2 L 74.0,59.8 L 72.6,61.3 L 71.1,62.9 L 69.6,64.3 L 67.9,65.7 L 66.2,67.1 L 64.4,68.4 L 62.6,69.7 L 60.7,70.8 L 58.7,71.9 L 56.7,73.0 L 54.7,73.9 L 52.7,74.8 L 50.6,75.6 L 48.6,76.3 L 46.5,76.9 L 44.4,77.4 L 42.4,77.8 L 40.4,78.1 L 38.4,78.3 L 36.4,78.4 L 34.5,78.4 L 32.6,78.3 L 30.8,78.1 L 29.1,77.8 L 27.4,77.4 L 25.8,76.9 L 24.3,76.3 L 22.9,75.5 L 21.6,74.7 L 20.4,73.8 L 19.3,72.8 L 18.3,71.8 L 17.5,70.6 L 16.7,69.3 L 16.2,68.0 L 15.7,66.6 L 15.4,65.2 L 15.2,63.6 L 15.2,62.1 L 15.3,60.4 L 15.5,58.8 L 15.9,57.0 L 16.4,55.3 L 17.1,53.5 L 17.9,51.8 L 18.9,50.0 L 20.0,48.2 L 21.2,46.4 L 22.6,44.6 L 24.1,42.8 L 25.7,41.1 L 27.4,39.4 L 29.3,37.7 L 31.2,36.1 L 33.2,34.5 L 35.4,33.0 L 37.6,31.6 L 39.8,30.2 L 42.1,29.0 L 44.5,27.8 L 47.0,26.7 L 49.4,25.7 L 51.9,24.8 L 54.4,24.0 L 56.9,23.3 L 59.4,22.7 L 61.8,22.3 L 64.2,21.9 L 66.6,21.7 L 69.0,21.6 L 71.3,21.6 L 73.5,21.8 L 75.6,22.1 L 77.6,22.5 L 79.6,23.0 L 81.4,23.6 L 83.1,24.3 L 84.7,25.2 L 86.1,26.2 L 87.5,27.2 L 88.6,28.4 L 89.6,29.7 L 90.5,31.0 L 91.2,32.5 L 91.7,34.0 L 92.1,35.6 L 92.3,37.3 L 92.3,39.0 L 92.2,40.7 L 91.9,42.5 L 91.4,44.4 L 90.8,46.2 L 89.9,48.1 L 89.0,50.0" />
  <path d="M 84.6,50.0 L 83.7,51.8 L 82.6,53.5 L 81.4,55.3 L 80.0,57.0 L 78.6,58.7 L 77.0,60.4 L 75.3,62.0 L 73.5,63.6 L 71.7,65.2 L 69.7,66.6 L 67.7,68.0 L 65.6,69.4 L 63.4,70.6 L 61.2,71.8 L 58.9,72.9 L 56.6,73.9 L 54.3,74.8 L 52.0,75.6 L 49.6,76.3 L 47.3,76.9 L 44.9,77.4 L 42.6,77.8 L 40.3,78.1 L 38.1,78.2 L 35.9,78.3 L 33.7,78.2 L 31.6,78.1 L 29.6,77.8 L 27.7,77.4 L 25.8,76.9 L 24.1,76.3 L 22.5,75.6 L 20.9,74.8 L 19.5,73.9 L 18.2,72.9 L 17.0,71.8 L 16.0,70.6 L 15.1,69.4 L 14.3,68.0 L 13.7,66.6 L 13.2,65.2 L 12.8,63.6 L 12.6,62.0 L 12.6,60.4 L 12.7,58.7 L 12.9,57.0 L 13.3,55.3 L 13.9,53.5 L 14.5,51.8 L 15.4,50.0 L 16.3,48.2 L 17.4,46.5 L 18.6,44.7 L 20.0,43.0 L 21.4,41.3 L 23.0,39.6 L 24.7,38.0 L 26.5,36.4 L 28.3,34.8 L 30.3,33.4 L 32.3,32.0 L 34.4,30.6 L 36.6,29.4 L 38.8,28.2 L 41.1,27.1 L 43.4,26.1 L 45.7,25.2 L 48.0,24.4 L 50.4,23.7 L 52.7,23.1 L 55.1,22.6 L 57.4,22.2 L 59.7,21.9 L 61.9,21.8 L 64.1,21.7 L 66.3,21.8 L 68.4,21.9 L 70.4,22.2 L 72.3,22.6 L 74.2,23.1 L 75.9,23.7 L 77.5,24.4 L 79.1,25.2 L 80.5,26.1 L 81.8,27.1 L 83.0,28.2 L 84.0,29.4 L 84.9,30.6 L 85.7,32.0 L 86.3,33.4 L 86.8,34.8 L 87.2,36.4 L 87.4,38.0 L 87.4,39.6 L 87.3,41.3 L 87.1,43.0 L 86.7,44.7 L 86.1,46.5 L 85.5,48.2 L 84.6,50.0" />
  <path d="M 89.0,50.0 L 87.8,51.9 L 86.6,53.8 L 85.1,55.6 L 83.5,57.5 L 81.8,59.3 L 80.0,61.0 L 78.0,62.7 L 76.0,64.4 L 73.8,66.0 L 71.5,67.5 L 69.2,69.0 L 66.7,70.3 L 64.2,71.6 L 61.7,72.8 L 59.1,73.8 L 56.5,74.8 L 53.9,75.7 L 51.2,76.4 L 48.6,77.0 L 45.9,77.5 L 43.3,77.9 L 40.8,78.2 L 38.2,78.4 L 35.8,78.4 L 33.4,78.3 L 31.0,78.1 L 28.8,77.7 L 26.6,77.3 L 24.6,76.7 L 22.6,76.0 L 20.8,75.2 L 19.1,74.3 L 17.5,73.3 L 16.1,72.2 L 14.8,71.0 L 13.7,69.8 L 12.7,68.4 L 11.8,67.0 L 11.1,65.5 L 10.6,63.9 L 10.2,62.3 L 10.0,60.6 L 9.9,58.9 L 10.0,57.2 L 10.2,55.4 L 10.6,53.6 L 11.1,51.8 L 11.8,50.0 L 12.6,48.2 L 13.6,46.5 L 14.7,44.7 L 15.9,43.0 L 17.2,41.2 L 18.7,39.6 L 20.2,37.9 L 21.9,36.4 L 23.6,34.8 L 25.5,33.4 L 27.4,32.0 L 29.4,30.7 L 31.4,29.4 L 33.5,28.2 L 35.6,27.2 L 37.8,26.2 L 40.0,25.3 L 42.2,24.5 L 44.5,23.7 L 46.7,23.1 L 48.9,22.6 L 51.1,22.2 L 53.3,21.9 L 55.4,21.7 L 57.6,21.6 L 59.6,21.6 L 61.6,21.7 L 63.6,21.9 L 65.5,22.2 L 67.3,22.6 L 69.0,23.1 L 70.7,23.7 L 72.2,24.4 L 73.7,25.2 L 75.1,26.1 L 76.3,27.0 L 77.5,28.1 L 78.5,29.2 L 79.4,30.3 L 80.2,31.6 L 80.9,32.9 L 81.5,34.3 L 81.9,35.7 L 82.2,37.1 L 82.4,38.7 L 82.5,40.2 L 82.4,41.8 L 82.3,43.4 L 81.9,45.0 L 81.5,46.7 L 81.0,48.3 L 80.3,50.0" />
  <path d="M 93.3,50.0 L 92.0,52.0 L 90.5,54.0 L 88.9,56.0 L 87.0,57.9 L 85.1,59.8 L 83.0,61.6 L 80.7,63.4 L 78.4,65.2 L 75.9,66.8 L 73.3,68.4 L 70.6,69.9 L 67.9,71.3 L 65.1,72.5 L 62.2,73.7 L 59.3,74.8 L 56.4,75.7 L 53.4,76.5 L 50.5,77.2 L 47.5,77.8 L 44.6,78.2 L 41.7,78.5 L 38.9,78.6 L 36.2,78.6 L 33.5,78.5 L 30.9,78.3 L 28.3,77.9 L 25.9,77.4 L 23.6,76.8 L 21.5,76.0 L 19.4,75.1 L 17.5,74.1 L 15.8,73.1 L 14.2,71.9 L 12.7,70.6 L 11.4,69.2 L 10.3,67.7 L 9.4,66.2 L 8.6,64.6 L 7.9,62.9 L 7.5,61.2 L 7.2,59.4 L 7.1,57.6 L 7.1,55.8 L 7.4,54.0 L 7.7,52.1 L 8.3,50.2 L 8.9,48.4 L 9.8,46.5 L 10.7,44.7 L 11.8,42.9 L 13.0,41.2 L 14.4,39.5 L 15.8,37.8 L 17.4,36.2 L 19.1,34.6 L 20.8,33.1 L 22.6,31.7 L 24.5,30.4 L 26.4,29.1 L 28.4,27.9 L 30.5,26.8 L 32.6,25.8 L 34.7,24.9 L 36.8,24.1 L 38.9,23.4 L 41.1,22.8 L 43.2,22.3 L 45.3,21.9 L 47.4,21.5 L 49.5,21.3 L 51.5,21.2 L 53.5,21.2 L 55.4,21.3 L 57.3,21.4 L 59.1,21.7 L 60.9,22.1 L 62.6,22.5 L 64.2,23.1 L 65.7,23.7 L 67.2,24.4 L 68.6,25.2 L 69.8,26.0 L 71.0,26.9 L 72.1,27.9 L 73.1,29.0 L 74.0,30.1 L 74.8,31.3 L 75.5,32.5 L 76.1,33.8 L 76.6,35.1 L 77.0,36.5 L 77.3,37.9 L 77.5,39.4 L 77.6,40.8 L 77.5,42.3 L 77.4,43.8 L 77.2,45.4 L 76.9,46.9 L 76.5,48.4 L 76.0,50.0" />
  <path d="M 97.6,50.0 L 96.1,52.1 L 94.5,54.2 L 92.6,56.3 L 90.5,58.3 L 88.3,60.3 L 86.0,62.3 L 83.4,64.1 L 80.8,65.9 L 78.0,67.7 L 75.1,69.3 L 72.1,70.8 L 69.0,72.2 L 65.9,73.5 L 62.7,74.7 L 59.5,75.7 L 56.2,76.6 L 53.0,77.4 L 49.7,78.0 L 46.5,78.5 L 43.3,78.8 L 40.2,79.0 L 37.1,79.1 L 34.1,78.9 L 31.2,78.7 L 28.4,78.3 L 25.7,77.7 L 23.1,77.1 L 20.7,76.3 L 18.4,75.3 L 16.2,74.2 L 14.3,73.1 L 12.4,71.8 L 10.8,70.4 L 9.3,68.9 L 8.1,67.3 L 7.0,65.7 L 6.0,64.0 L 5.3,62.2 L 4.8,60.3 L 4.4,58.5 L 4.2,56.6 L 4.2,54.6 L 4.4,52.7 L 4.7,50.7 L 5.3,48.8 L 5.9,46.8 L 6.7,44.9 L 7.7,43.0 L 8.8,41.2 L 10.1,39.4 L 11.4,37.6 L 12.9,36.0 L 14.5,34.3 L 16.1,32.8 L 17.9,31.3 L 19.7,29.9 L 21.6,28.6 L 23.5,27.4 L 25.5,26.2 L 27.5,25.2 L 29.6,24.3 L 31.6,23.4 L 33.7,22.7 L 35.8,22.1 L 37.9,21.6 L 39.9,21.1 L 42.0,20.8 L 44.0,20.6 L 45.9,20.5 L 47.8,20.4 L 49.7,20.5 L 51.5,20.7 L 53.3,20.9 L 55.0,21.3 L 56.6,21.7 L 58.2,22.2 L 59.7,22.8 L 61.1,23.5 L 62.5,24.2 L 63.7,25.0 L 64.9,25.9 L 66.0,26.8 L 67.0,27.8 L 67.9,28.9 L 68.8,29.9 L 69.5,31.1 L 70.2,32.3 L 70.8,33.5 L 71.3,34.7 L 71.7,36.0 L 72.1,37.3 L 72.3,38.7 L 72.5,40.1 L 72.6,41.4 L 72.7,42.8 L 72.6,44.3 L 72.5,45.7 L 72.3,47.1 L 72.0,48.6 L 71.7,50.0" />
  <path d="M 102.0,50.0 L 100.3,52.2 L 98.4,54.4 L 96.3,56.6 L 94.0,58.8 L 91.6,60.8 L 88.9,62.9 L 86.1,64.8 L 83.2,66.7 L 80.1,68.5 L 76.9,70.2 L 73.6,71.7 L 70.2,73.2 L 66.7,74.5 L 63.2,75.6 L 59.7,76.7 L 56.1,77.5 L 52.5,78.3 L 49.0,78.8 L 45.5,79.2 L 42.0,79.5 L 38.6,79.6 L 35.2,79.5 L 32.0,79.2 L 28.9,78.8 L 25.9,78.3 L 23.0,77.6 L 20.2,76.7 L 17.7,75.7 L 15.3,74.6 L 13.0,73.4 L 11.0,72.0 L 9.1,70.5 L 7.4,68.9 L 6.0,67.2 L 4.7,65.5 L 3.6,63.6 L 2.7,61.7 L 2.1,59.8 L 1.6,57.8 L 1.3,55.7 L 1.2,53.7 L 1.4,51.6 L 1.7,49.6 L 2.1,47.5 L 2.8,45.5 L 3.6,43.4 L 4.6,41.5 L 5.7,39.5 L 6.9,37.7 L 8.3,35.9 L 9.8,34.1 L 11.4,32.5 L 13.1,30.9 L 14.8,29.4 L 16.7,28.0 L 18.6,26.7 L 20.5,25.5 L 22.5,24.4 L 24.6,23.4 L 26.6,22.5 L 28.7,21.7 L 30.7,21.1 L 32.8,20.5 L 34.8,20.0 L 36.8,19.7 L 38.8,19.5 L 40.7,19.4 L 42.6,19.3 L 44.4,19.4 L 46.2,19.6 L 47.9,19.8 L 49.6,20.2 L 51.2,20.6 L 52.7,21.1 L 54.1,21.7 L 55.5,22.4 L 56.8,23.1 L 58.0,23.9 L 59.2,24.8 L 60.2,25.7 L 61.2,26.6 L 62.1,27.6 L 63.0,28.7 L 63.7,29.8 L 64.4,30.9 L 65.0,32.0 L 65.6,33.2 L 66.1,34.4 L 66.5,35.7 L 66.9,36.9 L 67.2,38.2 L 67.4,39.5 L 67.6,40.7 L 67.7,42.1 L 67.8,43.4 L 67.8,44.7 L 67.8,46.0 L 67.7,47.3 L 67.5,48.7 L 67.3,50.0" />
  <path d="M 67.3,50.0 L 70.8,50.0 L 74.2,50.0 L 77.7,50.0 L 81.2,50.0 L 84.6,50.0 L 88.1,50.0 L 91.6,50.0 L 95.0,50.0 L 98.5,50.0 L 102.0,50.0" />
  <path d="M 65.6,56.6 L 68.2,57.1 L 70.8,57.5 L 73.4,57.9 L 76.0,58.3 L 78.6,58.7 L 81.2,59.2 L 83.8,59.6 L 86.4,60.0 L 89.0,60.4 L 91.6,60.8" />
  <path d="M 62.5,63.1 L 64.0,63.8 L 65.4,64.5 L 66.8,65.2 L 68.3,65.9 L 69.7,66.6 L 71.2,67.3 L 72.6,68.0 L 74.0,68.7 L 75.5,69.5 L 76.9,70.2" />
  <path d="M 58.2,69.1 L 58.3,69.9 L 58.5,70.6 L 58.6,71.4 L 58.8,72.1 L 58.9,72.9 L 59.1,73.6 L 59.2,74.4 L 59.4,75.1 L 59.5,75.9 L 59.7,76.7" />
  <path d="M 52.5,74.3 L 51.5,74.8 L 50.4,75.4 L 49.4,75.9 L 48.3,76.4 L 47.3,76.9 L 46.2,77.4 L 45.1,77.9 L 44.1,78.4 L 43.0,79.0 L 42.0,79.5" />
  <path d="M 45.9,78.3 L 43.9,78.3 L 41.9,78.3 L 39.9,78.3 L 37.9,78.3 L 35.9,78.3 L 33.9,78.3 L 31.9,78.3 L 29.9,78.3 L 27.9,78.3 L 25.9,78.3" />
  <path d="M 38.7,80.4 L 36.1,79.7 L 33.5,79.0 L 31.0,78.3 L 28.4,77.6 L 25.8,76.9 L 23.3,76.2 L 20.7,75.5 L 18.2,74.8 L 15.6,74.1 L 13.0,73.4" />
  <path d="M 31.7,80.3 L 29.0,78.8 L 26.3,77.3 L 23.6,75.8 L 20.9,74.4 L 18.2,72.9 L 15.5,71.4 L 12.8,69.9 L 10.1,68.4 L 7.4,67.0 L 4.7,65.5" />
  <path d="M 26.0,77.5 L 23.5,75.3 L 21.1,73.2 L 18.6,71.0 L 16.1,68.8 L 13.7,66.6 L 11.2,64.4 L 8.7,62.3 L 6.3,60.1 L 3.8,57.9 L 1.3,55.7" />
  <path d="M 22.6,72.0 L 20.6,69.4 L 18.6,66.7 L 16.6,64.1 L 14.7,61.4 L 12.7,58.7 L 10.7,56.1 L 8.7,53.4 L 6.7,50.8 L 4.8,48.1 L 2.8,45.5" />
  <path d="M 22.4,64.1 L 21.0,61.3 L 19.6,58.5 L 18.2,55.7 L 16.8,52.8 L 15.4,50.0 L 13.9,47.2 L 12.5,44.3 L 11.1,41.5 L 9.7,38.7 L 8.3,35.9" />
  <path d="M 26.2,54.5 L 25.2,51.9 L 24.3,49.2 L 23.3,46.6 L 22.4,43.9 L 21.4,41.3 L 20.5,38.6 L 19.5,35.9 L 18.6,33.3 L 17.6,30.6 L 16.7,28.0" />
  <path d="M 34.0,44.3 L 33.2,42.1 L 32.5,39.9 L 31.8,37.7 L 31.0,35.6 L 30.3,33.4 L 29.6,31.2 L 28.8,29.0 L 28.1,26.8 L 27.3,24.7 L 26.6,22.5" />
  <path d="M 45.4,34.5 L 44.5,33.0 L 43.6,31.6 L 42.8,30.1 L 41.9,28.6 L 41.1,27.1 L 40.2,25.6 L 39.4,24.2 L 38.5,22.7 L 37.7,21.2 L 36.8,19.7" />
  <path d="M 59.3,26.6 L 58.0,25.9 L 56.7,25.2 L 55.4,24.5 L 54.1,23.8 L 52.7,23.1 L 51.4,22.4 L 50.1,21.7 L 48.8,21.0 L 47.5,20.3 L 46.2,19.6" />
  <path d="M 74.1,21.7 L 72.1,21.7 L 70.1,21.7 L 68.1,21.7 L 66.1,21.7 L 64.1,21.7 L 62.1,21.7 L 60.1,21.7 L 58.1,21.7 L 56.1,21.7 L 54.1,21.7" />
  <path d="M 88.1,20.5 L 85.3,21.0 L 82.5,21.6 L 79.7,22.1 L 76.9,22.6 L 74.2,23.1 L 71.4,23.6 L 68.6,24.1 L 65.8,24.6 L 63.0,25.2 L 60.2,25.7" />
  <path d="M 99.2,23.3 L 95.7,24.1 L 92.2,24.9 L 88.8,25.6 L 85.3,26.4 L 81.8,27.1 L 78.3,27.9 L 74.9,28.6 L 71.4,29.4 L 67.9,30.1 L 64.4,30.9" />
  <path d="M 105.8,29.8 L 101.9,30.5 L 98.0,31.3 L 94.1,32.0 L 90.2,32.7 L 86.3,33.4 L 82.4,34.1 L 78.6,34.8 L 74.7,35.5 L 70.8,36.2 L 66.9,36.9" />
  <path d="M 106.9,39.2 L 102.9,39.6 L 99.0,40.0 L 95.1,40.4 L 91.2,40.8 L 87.3,41.3 L 83.4,41.7 L 79.5,42.1 L 75.6,42.5 L 71.7,42.9 L 67.8,43.4" />
</svg>
